<svg xmlns="http://www.w3.org/2000/svg" xmlns:xlink="http://www.w3.org/1999/xlink" version="1.1" style="" xml:space="preserve" width="512" height="512"><rect id="backgroundrect" width="100%" height="100%" x="0" y="0" fill="none" stroke="none"/>
















<g class="currentLayer" style=""><title>Layer 1</title><g id="svg_1" class="selected" fill="#ffffff" fill-opacity="1">
	<g id="svg_2" fill="#ffffff" fill-opacity="1">
		<path d="M422,333.28205132484436 c-19.406,0 -37.277,6.313 -51.991,16.798000000000002 l-13.326,-13.326 c-33.889,-46.329 -33.889,-112.614 0,-158.943 l13.326,-13.327 C384.723,174.96905132484437 402.594,181.28205132484436 422,181.28205132484436 c49.629,0 90,-40.371 90,-90 c0,-49.629 -40.371,-90 -90,-90 c-49.629,0 -90,40.371 -90,90 c0,19.406 6.313,37.277 16.798000000000002,51.991 l-13.328,13.328 c-46.344,33.904 -112.596,33.904 -158.94,0 l-13.328,-13.328 C173.687,128.55905132484435 180,110.68805132484437 180,91.28205132484436 c0,-49.629 -40.371,-90 -90,-90 C40.371,1.2820513248443608 0,41.65305132484436 0,91.28205132484436 c0,49.629 40.371,90 90,90 c19.406,0 37.277,-6.313 51.991,-16.798000000000002 l13.326,13.326 c33.889,46.329 33.889,112.614 0,158.943 l-13.326,13.326 C127.277,339.59505132484435 109.406,333.28205132484436 90,333.28205132484436 c-49.629,0 -90,40.371 -90,90 c0,49.629 40.371,90 90,90 s90,-40.371 90,-90 c0,-19.406 -6.313,-37.277 -16.798000000000002,-51.991 l13.328,-13.328 c46.344,-33.904 112.596,-33.904 158.94,0 l13.328,13.328 C338.313,386.0050513248444 332,403.87605132484435 332,423.28205132484436 c0,49.629 40.371,90 90,90 c49.629,0 90,-40.371 90,-90 C512,373.65305132484434 471.629,333.28205132484436 422,333.28205132484436 zM422,31.28205132484436 c33.091,0 60,26.909 60,60 s-26.909,60 -60,60 c-11.094,0 -21.367,-3.232 -30.289,-8.5 L422,112.49305132484436 l4.3950000000000005,4.3950000000000005 c5.859,5.859 15.352,5.859 21.211,0 c5.859,-5.859 5.859,-15.352 0,-21.211 l-30,-30 c-5.859,-5.859 -15.352,-5.859 -21.211,0 c-5.859,5.859 -5.859,15.352 0,21.211 L400.789,91.28205132484436 L370.5,121.57105132484436 c-5.268,-8.923 -8.5,-19.195 -8.5,-30.289 C362,58.19105132484436 388.909,31.28205132484436 422,31.28205132484436 zM141.5,121.57105132484436 L111.211,91.28205132484436 l4.3950000000000005,-4.3950000000000005 c5.859,-5.859 5.859,-15.352 0,-21.211 s-15.352,-5.859 -21.211,0 l-30,30 c-5.859,5.859 -5.859,15.352 0,21.211 s15.352,5.859 21.211,0 L90,112.49305132484436 l30.289,30.289 c-8.923,5.268 -19.195,8.5 -30.289,8.5 c-33.091,0 -60,-26.909 -60,-60 s26.909,-60 60,-60 s60,26.909 60,60 C150,102.37605132484435 146.768,112.64905132484436 141.5,121.57105132484436 zM90,483.28205132484436 c-33.091,0 -60,-26.909 -60,-60 s26.909,-60 60,-60 c11.094,0 21.367,3.232 30.289,8.5 L90,402.07105132484435 l-4.3950000000000005,-4.3950000000000005 c-5.859,-5.859 -15.352,-5.859 -21.211,0 c-5.859,5.859 -5.859,15.352 0,21.211 l30,30 c5.859,5.859 15.352,5.859 21.211,0 c5.859,-5.859 5.859,-15.352 0,-21.211 L111.211,423.28205132484436 l30.289,-30.289 c5.268,8.923 8.5,19.195 8.5,30.289 C150,456.37305132484437 123.091,483.28205132484436 90,483.28205132484436 zM422,483.28205132484436 c-33.091,0 -60,-26.909 -60,-60 c0,-11.094 3.232,-21.367 8.5,-30.289 L400.789,423.28205132484436 l-4.3950000000000005,4.3950000000000005 c-5.859,5.859 -5.859,15.352 0,21.211 c2.93,2.93 6.768,4.3950000000000005 10.605,4.3950000000000005 c3.837,0 7.676,-1.465 10.605,-4.3950000000000005 l30,-30 c5.859,-5.859 5.859,-15.352 0,-21.211 s-15.352,-5.859 -21.211,0 L422,402.07105132484435 L391.711,371.78205132484436 c8.923,-5.268 19.195,-8.5 30.289,-8.5 c33.091,0 60,26.909 60,60 S455.091,483.28205132484436 422,483.28205132484436 z" id="svg_3" fill="#ffffff" fill-opacity="1"/>
	</g>
</g><g id="svg_4">
</g><g id="svg_5">
</g><g id="svg_6">
</g><g id="svg_7">
</g><g id="svg_8">
</g><g id="svg_9">
</g><g id="svg_10">
</g><g id="svg_11">
</g><g id="svg_12">
</g><g id="svg_13">
</g><g id="svg_14">
</g><g id="svg_15">
</g><g id="svg_16">
</g><g id="svg_17">
</g><g id="svg_18">
</g></g></svg>